<svg width="14" height="15" viewBox="0 0 14 15" fill="none" xmlns="http://www.w3.org/2000/svg">
<g clip-path="url(#clip0_2141_7)">
<path d="M7.88004 7.09925C8.06163 7.1019 8.24193 7.06843 8.41046 7.00076C8.57899 6.9331 8.73239 6.83261 8.86173 6.70513C8.99107 6.57765 9.09378 6.42572 9.16387 6.25819C9.23397 6.09066 9.27006 5.91086 9.27004 5.72925V5.72925C9.27004 5.36591 9.1257 5.01744 8.86878 4.76052C8.61185 4.50359 8.26339 4.35925 7.90004 4.35925H5.79004C5.65743 4.35925 5.53025 4.41193 5.43649 4.5057C5.34272 4.59947 5.29004 4.72664 5.29004 4.85925V9.85925C5.29004 9.99186 5.34272 10.119 5.43649 10.2128C5.53025 10.3066 5.65743 10.3593 5.79004 10.3593H7.88004C8.30969 10.3593 8.72174 10.1886 9.02555 9.88477C9.32936 9.58096 9.50004 9.1689 9.50004 8.73925C9.50004 8.3096 9.32936 7.89755 9.02555 7.59374C8.72174 7.28993 8.30969 7.11925 7.88004 7.11925V7.09925Z" stroke="white" stroke-linecap="round" stroke-linejoin="round"/>
<path d="M7.90004 7.09924H5.29004" stroke="white" stroke-linecap="round" stroke-linejoin="round"/>
<path d="M6.23999 4.35921V3.43921" stroke="white" stroke-linecap="round" stroke-linejoin="round"/>
<path d="M7.78003 4.35921V3.43921" stroke="white" stroke-linecap="round" stroke-linejoin="round"/>
<path d="M6.23999 11.4392V10.3392" stroke="white" stroke-linecap="round" stroke-linejoin="round"/>
<path d="M7.78003 11.4392V10.3392" stroke="white" stroke-linecap="round" stroke-linejoin="round"/>
<path d="M7 13.9392C10.5899 13.9392 13.5 11.0291 13.5 7.43921C13.5 3.84936 10.5899 0.939209 7 0.939209C3.41015 0.939209 0.5 3.84936 0.5 7.43921C0.5 11.0291 3.41015 13.9392 7 13.9392Z" stroke="white" stroke-linecap="round" stroke-linejoin="round"/>
</g>
<defs>
<clipPath id="clip0_2141_7">
<rect width="14" height="14" fill="white" transform="translate(0 0.439209)"/>
</clipPath>
</defs>
</svg>
