<svg width="110" height="111" viewBox="0 0 110 111" fill="none" xmlns="http://www.w3.org/2000/svg">
<path d="M110 0.195801H0V110.196H110V0.195801Z" fill="white"/>
<path d="M7.00322 3.02539H2.82959V7.19902H7.00322V3.02539Z" fill="black"/>
<path d="M11.1769 3.02539H7.00322V7.19902H11.1769V3.02539Z" fill="black"/>
<path d="M15.3505 3.02539H11.1769V7.19902H15.3505V3.02539Z" fill="black"/>
<path d="M19.5241 3.02539H15.3505V7.19902H19.5241V3.02539Z" fill="black"/>
<path d="M23.6978 3.02539H19.5241V7.19902H23.6978V3.02539Z" fill="black"/>
<path d="M27.8714 3.02539H23.6978V7.19902H27.8714V3.02539Z" fill="black"/>
<path d="M32.045 3.02539H27.8714V7.19902H32.045V3.02539Z" fill="black"/>
<path d="M40.3923 3.02539H36.2187V7.19902H40.3923V3.02539Z" fill="black"/>
<path d="M69.6077 3.02539H65.4341V7.19902H69.6077V3.02539Z" fill="black"/>
<path d="M82.1286 3.02539H77.955V7.19902H82.1286V3.02539Z" fill="black"/>
<path d="M86.3023 3.02539H82.1286V7.19902H86.3023V3.02539Z" fill="black"/>
<path d="M90.4759 3.02539H86.3023V7.19902H90.4759V3.02539Z" fill="black"/>
<path d="M94.6495 3.02539H90.4759V7.19902H94.6495V3.02539Z" fill="black"/>
<path d="M98.8232 3.02539H94.6495V7.19902H98.8232V3.02539Z" fill="black"/>
<path d="M102.997 3.02539H98.8232V7.19902H102.997V3.02539Z" fill="black"/>
<path d="M107.17 3.02539H102.997V7.19902H107.17V3.02539Z" fill="black"/>
<path d="M7.00322 7.19902H2.82959V11.3727H7.00322V7.19902Z" fill="black"/>
<path d="M32.045 7.19902H27.8714L27.8714 11.3727H32.045V7.19902Z" fill="black"/>
<path d="M44.5659 7.19902H40.3923V11.3727H44.5659V7.19902Z" fill="black"/>
<path d="M65.4341 7.19902H61.2605V11.3727H65.4341L65.4341 7.19902Z" fill="black"/>
<path d="M82.1286 7.19902H77.955V11.3727H82.1286V7.19902Z" fill="black"/>
<path d="M107.17 7.19902H102.997V11.3727H107.17V7.19902Z" fill="black"/>
<path d="M7.00322 11.3727H2.82959V15.5463H7.00322V11.3727Z" fill="black"/>
<path d="M15.3505 11.3727H11.1769V15.5463H15.3505V11.3727Z" fill="black"/>
<path d="M19.5241 11.3727H15.3505V15.5463H19.5241V11.3727Z" fill="black"/>
<path d="M23.6978 11.3727H19.5241V15.5463H23.6978V11.3727Z" fill="black"/>
<path d="M32.045 11.3727H27.8714V15.5463H32.045V11.3727Z" fill="black"/>
<path d="M40.3923 11.3727H36.2187V15.5463H40.3923V11.3727Z" fill="black"/>
<path d="M44.5659 11.3727H40.3923V15.5463H44.5659V11.3727Z" fill="black"/>
<path d="M61.2605 11.3727H57.0868V15.5463H61.2605V11.3727Z" fill="black"/>
<path d="M69.6077 11.3727H65.4341L65.4341 15.5463H69.6077V11.3727Z" fill="black"/>
<path d="M82.1286 11.3727H77.955V15.5463H82.1286V11.3727Z" fill="black"/>
<path d="M90.4759 11.3727H86.3023V15.5463H90.4759V11.3727Z" fill="black"/>
<path d="M94.6495 11.3727H90.4759V15.5463H94.6495V11.3727Z" fill="black"/>
<path d="M98.8232 11.3727H94.6495V15.5463H98.8232V11.3727Z" fill="black"/>
<path d="M107.17 11.3727H102.997V15.5463H107.17V11.3727Z" fill="black"/>
<path d="M7.00322 15.5463H2.82959V19.7199H7.00322V15.5463Z" fill="black"/>
<path d="M15.3505 15.5463H11.1769V19.7199H15.3505V15.5463Z" fill="black"/>
<path d="M19.5241 15.5463H15.3505V19.7199H19.5241V15.5463Z" fill="black"/>
<path d="M23.6978 15.5463H19.5241V19.7199H23.6978V15.5463Z" fill="black"/>
<path d="M32.045 15.5463H27.8714V19.7199H32.045V15.5463Z" fill="black"/>
<path d="M40.3923 15.5463H36.2187V19.7199H40.3923V15.5463Z" fill="black"/>
<path d="M44.5659 15.5463H40.3923V19.7199H44.5659V15.5463Z" fill="black"/>
<path d="M61.2605 15.5463H57.0868V19.7199H61.2605V15.5463Z" fill="black"/>
<path d="M82.1286 15.5463H77.955V19.7199H82.1286V15.5463Z" fill="black"/>
<path d="M90.4759 15.5463H86.3023V19.7199H90.4759V15.5463Z" fill="black"/>
<path d="M94.6495 15.5463H90.4759V19.7199H94.6495V15.5463Z" fill="black"/>
<path d="M98.8232 15.5463H94.6495V19.7199H98.8232V15.5463Z" fill="black"/>
<path d="M107.17 15.5463H102.997V19.7199H107.17V15.5463Z" fill="black"/>
<path d="M7.00322 19.7199H2.82959V23.8936H7.00322V19.7199Z" fill="black"/>
<path d="M15.3505 19.7199H11.1769V23.8936H15.3505V19.7199Z" fill="black"/>
<path d="M19.5241 19.7199H15.3505V23.8936H19.5241V19.7199Z" fill="black"/>
<path d="M23.6978 19.7199H19.5241V23.8936H23.6978V19.7199Z" fill="black"/>
<path d="M32.045 19.7199H27.8714V23.8936H32.045V19.7199Z" fill="black"/>
<path d="M44.5659 19.7199H40.3923V23.8936H44.5659V19.7199Z" fill="black"/>
<path d="M61.2605 19.7199H57.0868V23.8936H61.2605V19.7199Z" fill="black"/>
<path d="M73.7814 19.7199H69.6077V23.8936H73.7814V19.7199Z" fill="black"/>
<path d="M82.1286 19.7199H77.955V23.8936H82.1286V19.7199Z" fill="black"/>
<path d="M90.4759 19.7199H86.3023V23.8936H90.4759V19.7199Z" fill="black"/>
<path d="M94.6495 19.7199H90.4759V23.8936H94.6495V19.7199Z" fill="black"/>
<path d="M98.8232 19.7199H94.6495V23.8936H98.8232V19.7199Z" fill="black"/>
<path d="M107.17 19.7199H102.997V23.8936H107.17V19.7199Z" fill="black"/>
<path d="M7.00322 23.8936H2.82959V28.0672H7.00322V23.8936Z" fill="black"/>
<path d="M32.045 23.8936H27.8714V28.0672H32.045V23.8936Z" fill="black"/>
<path d="M40.3923 23.8936H36.2187V28.0672H40.3923V23.8936Z" fill="black"/>
<path d="M44.5659 23.8936H40.3923V28.0672H44.5659V23.8936Z" fill="black"/>
<path d="M48.7396 23.8936H44.5659V28.0672H48.7396V23.8936Z" fill="black"/>
<path d="M61.2605 23.8936H57.0868V28.0672H61.2605V23.8936Z" fill="black"/>
<path d="M73.7814 23.8936H69.6077V28.0672H73.7814V23.8936Z" fill="black"/>
<path d="M82.1286 23.8936H77.955V28.0672H82.1286V23.8936Z" fill="black"/>
<path d="M107.17 23.8936H102.997V28.0672H107.17V23.8936Z" fill="black"/>
<path d="M7.00322 28.0672H2.82959V32.2408H7.00322V28.0672Z" fill="black"/>
<path d="M11.1769 28.0672L7.00322 28.0672V32.2408H11.1769V28.0672Z" fill="black"/>
<path d="M15.3505 28.0672H11.1769V32.2408H15.3505V28.0672Z" fill="black"/>
<path d="M19.5241 28.0672H15.3505V32.2408H19.5241V28.0672Z" fill="black"/>
<path d="M23.6978 28.0672H19.5241V32.2408H23.6978V28.0672Z" fill="black"/>
<path d="M27.8714 28.0672L23.6978 28.0672V32.2408H27.8714L27.8714 28.0672Z" fill="black"/>
<path d="M32.045 28.0672H27.8714L27.8714 32.2408H32.045V28.0672Z" fill="black"/>
<path d="M40.3923 28.0672H36.2187V32.2408H40.3923V28.0672Z" fill="black"/>
<path d="M48.7396 28.0672H44.5659V32.2408H48.7396V28.0672Z" fill="black"/>
<path d="M57.0868 28.0672L52.9132 28.0672V32.2408H57.0868V28.0672Z" fill="black"/>
<path d="M65.4341 28.0672L61.2605 28.0672V32.2408H65.4341V28.0672Z" fill="black"/>
<path d="M73.7814 28.0672H69.6077V32.2408H73.7814V28.0672Z" fill="black"/>
<path d="M82.1286 28.0672H77.955V32.2408H82.1286V28.0672Z" fill="black"/>
<path d="M86.3023 28.0672L82.1286 28.0672V32.2408H86.3023V28.0672Z" fill="black"/>
<path d="M90.4759 28.0672H86.3023V32.2408H90.4759V28.0672Z" fill="black"/>
<path d="M94.6495 28.0672H90.4759V32.2408H94.6495V28.0672Z" fill="black"/>
<path d="M98.8232 28.0672H94.6495V32.2408H98.8232V28.0672Z" fill="black"/>
<path d="M102.997 28.0672L98.8232 28.0672V32.2408H102.997V28.0672Z" fill="black"/>
<path d="M107.17 28.0672H102.997V32.2408H107.17V28.0672Z" fill="black"/>
<path d="M40.3923 32.2408H36.2187V36.4145H40.3923V32.2408Z" fill="black"/>
<path d="M44.5659 32.2408H40.3923V36.4145H44.5659V32.2408Z" fill="black"/>
<path d="M52.9132 32.2408H48.7396V36.4145H52.9132V32.2408Z" fill="black"/>
<path d="M57.0868 32.2408H52.9132V36.4145H57.0868V32.2408Z" fill="black"/>
<path d="M65.4341 32.2408H61.2605V36.4145H65.4341V32.2408Z" fill="black"/>
<path d="M7.00322 36.4145H2.82959V40.5881H7.00322V36.4145Z" fill="black"/>
<path d="M11.1769 36.4145H7.00322V40.5881H11.1769V36.4145Z" fill="black"/>
<path d="M19.5241 36.4145H15.3505V40.5881H19.5241V36.4145Z" fill="black"/>
<path d="M32.045 36.4145H27.8714V40.5881H32.045V36.4145Z" fill="black"/>
<path d="M36.2187 36.4145H32.045V40.5881H36.2187V36.4145Z" fill="black"/>
<path d="M44.5659 36.4145H40.3923V40.5881H44.5659V36.4145Z" fill="black"/>
<path d="M65.4341 36.4145H61.2605V40.5881H65.4341V36.4145Z" fill="black"/>
<path d="M73.7814 36.4145H69.6077V40.5881H73.7814V36.4145Z" fill="black"/>
<path d="M77.955 36.4145H73.7814V40.5881H77.955V36.4145Z" fill="black"/>
<path d="M82.1286 36.4145H77.955V40.5881H82.1286V36.4145Z" fill="black"/>
<path d="M86.3023 36.4145H82.1286V40.5881H86.3023V36.4145Z" fill="black"/>
<path d="M94.6495 36.4145H90.4759V40.5881H94.6495V36.4145Z" fill="black"/>
<path d="M98.8232 36.4145H94.6495V40.5881H98.8232V36.4145Z" fill="black"/>
<path d="M107.17 36.4145H102.997V40.5881H107.17V36.4145Z" fill="black"/>
<path d="M19.5241 40.5881H15.3505V44.7617H19.5241V40.5881Z" fill="black"/>
<path d="M23.6978 40.5881H19.5241V44.7617H23.6978V40.5881Z" fill="black"/>
<path d="M40.3923 40.5881H36.2187V44.7617H40.3923V40.5881Z" fill="black"/>
<path d="M44.5659 40.5881H40.3923V44.7617H44.5659V40.5881Z" fill="black"/>
<path d="M57.0868 40.5881H52.9132V44.7617H57.0868V40.5881Z" fill="black"/>
<path d="M65.4341 40.5881H61.2605V44.7617H65.4341V40.5881Z" fill="black"/>
<path d="M82.1286 40.5881H77.955V44.7617H82.1286V40.5881Z" fill="black"/>
<path d="M98.8232 40.5881H94.6495V44.7617H98.8232V40.5881Z" fill="black"/>
<path d="M107.17 40.5881H102.997V44.7617H107.17V40.5881Z" fill="black"/>
<path d="M7.00322 44.7617H2.82959V48.9354H7.00322V44.7617Z" fill="black"/>
<path d="M11.1769 44.7617H7.00322V48.9354H11.1769V44.7617Z" fill="black"/>
<path d="M15.3505 44.7617H11.1769V48.9354H15.3505V44.7617Z" fill="black"/>
<path d="M23.6978 44.7617H19.5241V48.9354H23.6978V44.7617Z" fill="black"/>
<path d="M32.045 44.7617H27.8714V48.9354H32.045V44.7617Z" fill="black"/>
<path d="M36.2187 44.7617H32.045V48.9354H36.2187V44.7617Z" fill="black"/>
<path d="M40.3923 44.7617H36.2187V48.9354H40.3923V44.7617Z" fill="black"/>
<path d="M44.5659 44.7617H40.3923V48.9354H44.5659V44.7617Z" fill="black"/>
<path d="M52.9132 44.7617H48.7396V48.9354H52.9132V44.7617Z" fill="black"/>
<path d="M77.955 44.7617H73.7814V48.9354H77.955V44.7617Z" fill="black"/>
<path d="M86.3023 44.7617H82.1286V48.9354H86.3023V44.7617Z" fill="black"/>
<path d="M94.6495 44.7617H90.4759V48.9354H94.6495V44.7617Z" fill="black"/>
<path d="M107.17 44.7617H102.997V48.9354H107.17V44.7617Z" fill="black"/>
<path d="M7.00322 48.9354H2.82959V53.109H7.00322V48.9354Z" fill="black"/>
<path d="M19.5241 48.9354H15.3505V53.109H19.5241V48.9354Z" fill="black"/>
<path d="M23.6978 48.9354H19.5241V53.109H23.6978V48.9354Z" fill="black"/>
<path d="M40.3923 48.9354H36.2187V53.109H40.3923V48.9354Z" fill="black"/>
<path d="M44.5659 48.9354H40.3923V53.109H44.5659V48.9354Z" fill="black"/>
<path d="M48.7396 48.9354H44.5659V53.109H48.7396V48.9354Z" fill="black"/>
<path d="M52.9132 48.9354H48.7396V53.109H52.9132V48.9354Z" fill="black"/>
<path d="M57.0868 48.9354H52.9132V53.109H57.0868V48.9354Z" fill="black"/>
<path d="M61.2605 48.9354H57.0868V53.109H61.2605V48.9354Z" fill="black"/>
<path d="M65.4341 48.9354H61.2605V53.109H65.4341V48.9354Z" fill="black"/>
<path d="M69.6077 48.9354H65.4341V53.109H69.6077V48.9354Z" fill="black"/>
<path d="M86.3023 48.9354H82.1286V53.109H86.3023V48.9354Z" fill="black"/>
<path d="M102.997 48.9354H98.8232V53.109H102.997V48.9354Z" fill="black"/>
<path d="M107.17 48.9354H102.997V53.109H107.17V48.9354Z" fill="black"/>
<path d="M7.00322 53.109H2.82959V57.2826H7.00322V53.109Z" fill="black"/>
<path d="M15.3505 53.109H11.1769V57.2826H15.3505V53.109Z" fill="black"/>
<path d="M32.045 53.109H27.8714V57.2826H32.045V53.109Z" fill="black"/>
<path d="M44.5659 53.109H40.3923V57.2826H44.5659V53.109Z" fill="black"/>
<path d="M52.9132 53.109H48.7396V57.2826H52.9132V53.109Z" fill="black"/>
<path d="M57.0868 53.109H52.9132V57.2826H57.0868V53.109Z" fill="black"/>
<path d="M61.2605 53.109H57.0868V57.2826H61.2605V53.109Z" fill="black"/>
<path d="M73.7814 53.109H69.6077V57.2826H73.7814V53.109Z" fill="black"/>
<path d="M102.997 53.109H98.8232V57.2826H102.997V53.109Z" fill="black"/>
<path d="M11.1769 57.2826H7.00322V61.4563H11.1769V57.2826Z" fill="black"/>
<path d="M15.3505 57.2826H11.1769V61.4563H15.3505V57.2826Z" fill="black"/>
<path d="M19.5241 57.2826H15.3505V61.4563H19.5241V57.2826Z" fill="black"/>
<path d="M27.8714 57.2826H23.6978V61.4563H27.8714L27.8714 57.2826Z" fill="black"/>
<path d="M40.3923 57.2826H36.2187V61.4563H40.3923V57.2826Z" fill="black"/>
<path d="M44.5659 57.2826H40.3923V61.4563H44.5659V57.2826Z" fill="black"/>
<path d="M48.7396 57.2826H44.5659V61.4563H48.7396V57.2826Z" fill="black"/>
<path d="M65.4341 57.2826H61.2605V61.4563H65.4341V57.2826Z" fill="black"/>
<path d="M82.1286 57.2826H77.955V61.4563H82.1286V57.2826Z" fill="black"/>
<path d="M86.3023 57.2826H82.1286V61.4563H86.3023V57.2826Z" fill="black"/>
<path d="M90.4759 57.2826H86.3023V61.4563H90.4759V57.2826Z" fill="black"/>
<path d="M102.997 57.2826H98.8232V61.4563H102.997V57.2826Z" fill="black"/>
<path d="M7.00322 61.4563H2.82959V65.6299H7.00322V61.4563Z" fill="black"/>
<path d="M11.1769 61.4563H7.00322V65.6299H11.1769V61.4563Z" fill="black"/>
<path d="M19.5241 61.4563H15.3505V65.6299H19.5241V61.4563Z" fill="black"/>
<path d="M27.8714 61.4563H23.6978V65.6299H27.8714V61.4563Z" fill="black"/>
<path d="M32.045 61.4563H27.8714V65.6299H32.045V61.4563Z" fill="black"/>
<path d="M36.2187 61.4563H32.045V65.6299H36.2187V61.4563Z" fill="black"/>
<path d="M57.0868 61.4563H52.9132V65.6299H57.0868V61.4563Z" fill="black"/>
<path d="M61.2605 61.4563H57.0868V65.6299H61.2605V61.4563Z" fill="black"/>
<path d="M69.6077 61.4563H65.4341L65.4341 65.6299H69.6077V61.4563Z" fill="black"/>
<path d="M73.7814 61.4563H69.6077V65.6299H73.7814V61.4563Z" fill="black"/>
<path d="M77.955 61.4563H73.7814V65.6299H77.955V61.4563Z" fill="black"/>
<path d="M82.1286 61.4563H77.955V65.6299H82.1286V61.4563Z" fill="black"/>
<path d="M86.3023 61.4563H82.1286V65.6299H86.3023V61.4563Z" fill="black"/>
<path d="M90.4759 61.4563H86.3023V65.6299H90.4759V61.4563Z" fill="black"/>
<path d="M98.8232 61.4563H94.6495V65.6299H98.8232V61.4563Z" fill="black"/>
<path d="M102.997 61.4563H98.8232V65.6299H102.997V61.4563Z" fill="black"/>
<path d="M19.5241 65.6299H15.3505V69.8035H19.5241V65.6299Z" fill="black"/>
<path d="M23.6978 65.6299H19.5241V69.8035H23.6978V65.6299Z" fill="black"/>
<path d="M36.2187 65.6299H32.045V69.8035H36.2187V65.6299Z" fill="black"/>
<path d="M52.9132 65.6299L48.7396 65.6299V69.8035H52.9132V65.6299Z" fill="black"/>
<path d="M61.2605 65.6299H57.0868V69.8035H61.2605V65.6299Z" fill="black"/>
<path d="M77.955 65.6299H73.7814V69.8035H77.955V65.6299Z" fill="black"/>
<path d="M86.3023 65.6299H82.1286V69.8035H86.3023V65.6299Z" fill="black"/>
<path d="M7.00322 69.8035H2.82959V73.9772H7.00322V69.8035Z" fill="black"/>
<path d="M11.1769 69.8035H7.00322V73.9772H11.1769V69.8035Z" fill="black"/>
<path d="M15.3505 69.8035H11.1769V73.9772H15.3505V69.8035Z" fill="black"/>
<path d="M23.6978 69.8035H19.5241V73.9772H23.6978V69.8035Z" fill="black"/>
<path d="M27.8714 69.8035H23.6978V73.9772H27.8714V69.8035Z" fill="black"/>
<path d="M32.045 69.8035H27.8714V73.9772H32.045V69.8035Z" fill="black"/>
<path d="M36.2187 69.8035H32.045V73.9772H36.2187V69.8035Z" fill="black"/>
<path d="M40.3923 69.8035H36.2187V73.9772H40.3923V69.8035Z" fill="black"/>
<path d="M44.5659 69.8035H40.3923V73.9772H44.5659V69.8035Z" fill="black"/>
<path d="M73.7814 69.8035H69.6077V73.9772H73.7814V69.8035Z" fill="black"/>
<path d="M77.955 69.8035H73.7814V73.9772H77.955V69.8035Z" fill="black"/>
<path d="M82.1286 69.8035H77.955V73.9772H82.1286V69.8035Z" fill="black"/>
<path d="M86.3023 69.8035H82.1286V73.9772H86.3023V69.8035Z" fill="black"/>
<path d="M90.4759 69.8035H86.3023V73.9772H90.4759V69.8035Z" fill="black"/>
<path d="M98.8232 69.8035H94.6495V73.9772H98.8232V69.8035Z" fill="black"/>
<path d="M44.5659 73.9772H40.3923V78.1508H44.5659V73.9772Z" fill="black"/>
<path d="M48.7396 73.9772H44.5659V78.1508H48.7396V73.9772Z" fill="black"/>
<path d="M57.0868 73.9772H52.9132V78.1508H57.0868V73.9772Z" fill="black"/>
<path d="M61.2605 73.9772H57.0868V78.1508H61.2605V73.9772Z" fill="black"/>
<path d="M65.4341 73.9772H61.2605V78.1508H65.4341V73.9772Z" fill="black"/>
<path d="M69.6077 73.9772H65.4341V78.1508H69.6077V73.9772Z" fill="black"/>
<path d="M73.7814 73.9772H69.6077V78.1508H73.7814V73.9772Z" fill="black"/>
<path d="M90.4759 73.9772H86.3023V78.1508H90.4759V73.9772Z" fill="black"/>
<path d="M94.6495 73.9772H90.4759V78.1508H94.6495V73.9772Z" fill="black"/>
<path d="M98.8232 73.9772H94.6495V78.1508H98.8232V73.9772Z" fill="black"/>
<path d="M102.997 73.9772H98.8232V78.1508H102.997V73.9772Z" fill="black"/>
<path d="M7.00322 78.1508H2.82959V82.3244H7.00322V78.1508Z" fill="black"/>
<path d="M11.1769 78.1508H7.00322V82.3244H11.1769V78.1508Z" fill="black"/>
<path d="M15.3505 78.1508H11.1769V82.3244H15.3505V78.1508Z" fill="black"/>
<path d="M19.5241 78.1508H15.3505V82.3244H19.5241V78.1508Z" fill="black"/>
<path d="M23.6978 78.1508H19.5241V82.3244H23.6978V78.1508Z" fill="black"/>
<path d="M27.8714 78.1508H23.6978V82.3244H27.8714V78.1508Z" fill="black"/>
<path d="M32.045 78.1508H27.8714V82.3244H32.045V78.1508Z" fill="black"/>
<path d="M40.3923 78.1508H36.2187V82.3244H40.3923V78.1508Z" fill="black"/>
<path d="M57.0868 78.1508H52.9132V82.3244H57.0868V78.1508Z" fill="black"/>
<path d="M61.2605 78.1508H57.0868V82.3244H61.2605V78.1508Z" fill="black"/>
<path d="M69.6077 78.1508H65.4341L65.4341 82.3244H69.6077V78.1508Z" fill="black"/>
<path d="M73.7814 78.1508H69.6077V82.3244H73.7814V78.1508Z" fill="black"/>
<path d="M82.1286 78.1508H77.955V82.3244H82.1286V78.1508Z" fill="black"/>
<path d="M90.4759 78.1508H86.3023V82.3244H90.4759V78.1508Z" fill="black"/>
<path d="M94.6495 78.1508H90.4759V82.3244H94.6495V78.1508Z" fill="black"/>
<path d="M98.8232 78.1508H94.6495V82.3244H98.8232V78.1508Z" fill="black"/>
<path d="M102.997 78.1508H98.8232V82.3244H102.997V78.1508Z" fill="black"/>
<path d="M7.00322 82.3244H2.82959V86.4981H7.00322V82.3244Z" fill="black"/>
<path d="M32.045 82.3244H27.8714L27.8714 86.4981H32.045V82.3244Z" fill="black"/>
<path d="M44.5659 82.3244H40.3923V86.4981H44.5659V82.3244Z" fill="black"/>
<path d="M61.2605 82.3244H57.0868V86.4981H61.2605V82.3244Z" fill="black"/>
<path d="M69.6077 82.3244H65.4341V86.4981H69.6077V82.3244Z" fill="black"/>
<path d="M73.7814 82.3244H69.6077V86.4981H73.7814V82.3244Z" fill="black"/>
<path d="M90.4759 82.3244H86.3023V86.4981H90.4759V82.3244Z" fill="black"/>
<path d="M94.6495 82.3244H90.4759V86.4981H94.6495V82.3244Z" fill="black"/>
<path d="M98.8232 82.3244H94.6495V86.4981H98.8232V82.3244Z" fill="black"/>
<path d="M107.17 82.3244H102.997V86.4981H107.17V82.3244Z" fill="black"/>
<path d="M7.00322 86.4981H2.82959V90.6717H7.00322V86.4981Z" fill="black"/>
<path d="M15.3505 86.4981H11.1769V90.6717H15.3505V86.4981Z" fill="black"/>
<path d="M19.5241 86.4981H15.3505V90.6717H19.5241V86.4981Z" fill="black"/>
<path d="M23.6978 86.4981H19.5241V90.6717H23.6978V86.4981Z" fill="black"/>
<path d="M32.045 86.4981H27.8714V90.6717H32.045V86.4981Z" fill="black"/>
<path d="M52.9132 86.4981H48.7396V90.6717H52.9132V86.4981Z" fill="black"/>
<path d="M57.0868 86.4981H52.9132V90.6717H57.0868V86.4981Z" fill="black"/>
<path d="M61.2605 86.4981H57.0868V90.6717H61.2605V86.4981Z" fill="black"/>
<path d="M65.4341 86.4981H61.2605V90.6717H65.4341L65.4341 86.4981Z" fill="black"/>
<path d="M73.7814 86.4981H69.6077V90.6717H73.7814V86.4981Z" fill="black"/>
<path d="M77.955 86.4981H73.7814V90.6717H77.955V86.4981Z" fill="black"/>
<path d="M82.1286 86.4981H77.955V90.6717H82.1286V86.4981Z" fill="black"/>
<path d="M86.3023 86.4981H82.1286V90.6717H86.3023V86.4981Z" fill="black"/>
<path d="M90.4759 86.4981H86.3023V90.6717H90.4759V86.4981Z" fill="black"/>
<path d="M94.6495 86.4981H90.4759V90.6717H94.6495V86.4981Z" fill="black"/>
<path d="M98.8232 86.4981H94.6495V90.6717H98.8232V86.4981Z" fill="black"/>
<path d="M102.997 86.4981H98.8232V90.6717H102.997V86.4981Z" fill="black"/>
<path d="M107.17 86.4981H102.997V90.6717H107.17V86.4981Z" fill="black"/>
<path d="M7.00322 90.6717H2.82959V94.8453H7.00322V90.6717Z" fill="black"/>
<path d="M15.3505 90.6717H11.1769V94.8453H15.3505V90.6717Z" fill="black"/>
<path d="M19.5241 90.6717H15.3505V94.8453H19.5241V90.6717Z" fill="black"/>
<path d="M23.6978 90.6717H19.5241V94.8453H23.6978V90.6717Z" fill="black"/>
<path d="M32.045 90.6717H27.8714V94.8453H32.045V90.6717Z" fill="black"/>
<path d="M40.3923 90.6717H36.2187V94.8453H40.3923V90.6717Z" fill="black"/>
<path d="M48.7396 90.6717H44.5659V94.8453H48.7396V90.6717Z" fill="black"/>
<path d="M57.0868 90.6717H52.9132V94.8453H57.0868V90.6717Z" fill="black"/>
<path d="M61.2605 90.6717H57.0868V94.8453H61.2605V90.6717Z" fill="black"/>
<path d="M86.3023 90.6717H82.1286V94.8453H86.3023V90.6717Z" fill="black"/>
<path d="M102.997 90.6717H98.8232V94.8453H102.997V90.6717Z" fill="black"/>
<path d="M107.17 90.6717H102.997V94.8453H107.17V90.6717Z" fill="black"/>
<path d="M7.00322 94.8453H2.82959V99.019H7.00322V94.8453Z" fill="black"/>
<path d="M15.3505 94.8453H11.1769V99.019H15.3505V94.8453Z" fill="black"/>
<path d="M19.5241 94.8453H15.3505V99.019H19.5241V94.8453Z" fill="black"/>
<path d="M23.6978 94.8453H19.5241V99.019H23.6978V94.8453Z" fill="black"/>
<path d="M32.045 94.8453H27.8714V99.019H32.045V94.8453Z" fill="black"/>
<path d="M48.7396 94.8453H44.5659V99.019H48.7396V94.8453Z" fill="black"/>
<path d="M52.9132 94.8453H48.7396V99.019H52.9132V94.8453Z" fill="black"/>
<path d="M57.0868 94.8453H52.9132V99.019H57.0868V94.8453Z" fill="black"/>
<path d="M61.2605 94.8453H57.0868V99.019H61.2605V94.8453Z" fill="black"/>
<path d="M73.7814 94.8453H69.6077V99.019H73.7814V94.8453Z" fill="black"/>
<path d="M77.955 94.8453H73.7814V99.019H77.955V94.8453Z" fill="black"/>
<path d="M82.1286 94.8453H77.955V99.019H82.1286V94.8453Z" fill="black"/>
<path d="M94.6495 94.8453H90.4759V99.019H94.6495V94.8453Z" fill="black"/>
<path d="M102.997 94.8453H98.8232V99.019H102.997V94.8453Z" fill="black"/>
<path d="M107.17 94.8453H102.997V99.019H107.17V94.8453Z" fill="black"/>
<path d="M7.00322 99.019H2.82959V103.193H7.00322V99.019Z" fill="black"/>
<path d="M32.045 99.019H27.8714V103.193H32.045V99.019Z" fill="black"/>
<path d="M40.3923 99.019H36.2187V103.193H40.3923V99.019Z" fill="black"/>
<path d="M44.5659 99.019H40.3923V103.193H44.5659V99.019Z" fill="black"/>
<path d="M52.9132 99.019H48.7396V103.193H52.9132V99.019Z" fill="black"/>
<path d="M57.0868 99.019H52.9132V103.193H57.0868V99.019Z" fill="black"/>
<path d="M65.4341 99.019H61.2605V103.193H65.4341V99.019Z" fill="black"/>
<path d="M69.6077 99.019H65.4341V103.193H69.6077V99.019Z" fill="black"/>
<path d="M77.955 99.019H73.7814V103.193H77.955V99.019Z" fill="black"/>
<path d="M82.1286 99.019H77.955V103.193H82.1286V99.019Z" fill="black"/>
<path d="M94.6495 99.019H90.4759V103.193H94.6495V99.019Z" fill="black"/>
<path d="M98.8232 99.019H94.6495V103.193H98.8232V99.019Z" fill="black"/>
<path d="M107.17 99.019H102.997V103.193H107.17V99.019Z" fill="black"/>
<path d="M7.00322 103.193H2.82959V107.366H7.00322V103.193Z" fill="black"/>
<path d="M11.1769 103.193H7.00322V107.366H11.1769V103.193Z" fill="black"/>
<path d="M15.3505 103.193H11.1769V107.366H15.3505V103.193Z" fill="black"/>
<path d="M19.5241 103.193H15.3505V107.366H19.5241V103.193Z" fill="black"/>
<path d="M23.6978 103.193H19.5241V107.366H23.6978V103.193Z" fill="black"/>
<path d="M27.8714 103.193H23.6978V107.366H27.8714L27.8714 103.193Z" fill="black"/>
<path d="M32.045 103.193H27.8714L27.8714 107.366H32.045V103.193Z" fill="black"/>
<path d="M40.3923 103.193H36.2187V107.366H40.3923V103.193Z" fill="black"/>
<path d="M52.9132 103.193H48.7396V107.366H52.9132V103.193Z" fill="black"/>
<path d="M57.0868 103.193H52.9132V107.366H57.0868V103.193Z" fill="black"/>
<path d="M61.2605 103.193H57.0868V107.366H61.2605V103.193Z" fill="black"/>
<path d="M77.955 103.193H73.7814V107.366H77.955V103.193Z" fill="black"/>
<path d="M82.1286 103.193H77.955V107.366H82.1286V103.193Z" fill="black"/>
<path d="M86.3023 103.193H82.1286V107.366H86.3023V103.193Z" fill="black"/>
<path d="M94.6495 103.193H90.4759V107.366H94.6495V103.193Z" fill="black"/>
<path d="M107.17 103.193H102.997V107.366H107.17V103.193Z" fill="black"/>
</svg>
