<svg width="28" height="28" viewBox="0 0 28 28" fill="none" xmlns="http://www.w3.org/2000/svg">
<rect x="0.5" y="0.5" width="27" height="27" stroke="white"/>
<path d="M16.1049 14.5038L18.6286 12.8753C18.7269 12.8157 18.8106 12.7349 18.8736 12.6388C18.9367 12.5427 18.9775 12.4336 18.993 12.3197C19.0086 12.2058 18.9984 12.0899 18.9634 11.9804C18.9284 11.8709 18.8694 11.7706 18.7906 11.6868L16.3133 9.20948C16.2295 9.13073 16.1292 9.07169 16.0197 9.03667C15.9102 9.00166 15.7943 8.99154 15.6804 9.00708C15.5665 9.02261 15.4575 9.0634 15.3613 9.12645C15.2652 9.18951 15.1844 9.27325 15.1248 9.37155L13.4578 11.8643L9.99254 12.6361C9.9133 12.6553 9.84053 12.6951 9.78162 12.7515C9.7227 12.8079 9.67971 12.8788 9.657 12.9571C9.63428 13.0354 9.63266 13.1184 9.65227 13.1975C9.67189 13.2767 9.71207 13.3492 9.76873 13.4079L14.5151 18.1619C14.5751 18.2163 14.6482 18.2542 14.7273 18.2721C14.8063 18.2899 14.8886 18.2871 14.9662 18.2638C15.0438 18.2405 15.1141 18.1976 15.1703 18.1392C15.2265 18.0808 15.2666 18.0089 15.2868 17.9304L16.1049 14.5038Z" stroke="white" stroke-linecap="round" stroke-linejoin="round"/>
<path d="M12.138 15.8389L8.98145 19.0185" stroke="white" stroke-linecap="round" stroke-linejoin="round"/>
</svg>
