<svg width="14" height="15" viewBox="0 0 14 15" fill="none" xmlns="http://www.w3.org/2000/svg">
<path d="M11.2409 3.54834C10.465 3.18668 9.62503 2.92418 8.75003 2.77251C8.74236 2.77227 8.73472 2.77371 8.72767 2.77673C8.72061 2.77975 8.71431 2.78429 8.70919 2.79001C8.60419 2.98251 8.48169 3.23334 8.40003 3.42584C7.47194 3.28584 6.52811 3.28584 5.60003 3.42584C5.51836 3.22751 5.39586 2.98251 5.28503 2.79001C5.27919 2.77834 5.26169 2.77251 5.24419 2.77251C4.36919 2.92418 3.53503 3.18668 2.75336 3.54834C2.74753 3.54834 2.74169 3.55418 2.73586 3.56001C1.14919 5.93418 0.711694 8.24418 0.927528 10.5308C0.927528 10.5425 0.933361 10.5542 0.945028 10.56C1.99503 11.33 3.00419 11.7967 4.00169 12.1058C4.01919 12.1117 4.03669 12.1058 4.04253 12.0942C4.27586 11.7733 4.48586 11.435 4.66669 11.0792C4.67836 11.0558 4.66669 11.0325 4.64336 11.0267C4.31086 10.8983 3.99586 10.7467 3.68669 10.5717C3.66336 10.56 3.66336 10.525 3.68086 10.5075C3.74503 10.4608 3.80919 10.4083 3.87336 10.3617C3.88503 10.35 3.90253 10.35 3.91419 10.3558C5.92086 11.2717 8.08503 11.2717 10.0684 10.3558C10.08 10.35 10.0975 10.35 10.1092 10.3617C10.1734 10.4142 10.2375 10.4608 10.3017 10.5133C10.325 10.5308 10.325 10.5658 10.2959 10.5775C9.99253 10.7583 9.67169 10.9042 9.33919 11.0325C9.31586 11.0383 9.31003 11.0675 9.31586 11.085C9.50253 11.4408 9.71253 11.7792 9.94003 12.1C9.95753 12.1058 9.97503 12.1117 9.99253 12.1058C10.9959 11.7967 12.005 11.33 13.055 10.56C13.0667 10.5542 13.0725 10.5425 13.0725 10.5308C13.3292 7.88834 12.6467 5.59584 11.2642 3.56001C11.2584 3.55418 11.2525 3.54834 11.2409 3.54834ZM4.97003 9.13668C4.36919 9.13668 3.86753 8.58251 3.86753 7.90001C3.86753 7.21751 4.35753 6.66334 4.97003 6.66334C5.58836 6.66334 6.07836 7.22334 6.07253 7.90001C6.07253 8.58251 5.58253 9.13668 4.97003 9.13668ZM9.03586 9.13668C8.43503 9.13668 7.93336 8.58251 7.93336 7.90001C7.93336 7.21751 8.42336 6.66334 9.03586 6.66334C9.65419 6.66334 10.1442 7.22334 10.1384 7.90001C10.1384 8.58251 9.65419 9.13668 9.03586 9.13668Z" fill="white"/>
</svg>
