<svg width="182" height="55" viewBox="0 0 182 55" fill="none" xmlns="http://www.w3.org/2000/svg">
<g clip-path="url(#clip0_3367_2868)">
<path d="M177.593 0.763916H3.71362C2.07254 0.763916 0.742188 2.13193 0.742188 3.81947V51.1806C0.742188 52.8681 2.07254 54.2361 3.71362 54.2361H177.593C179.234 54.2361 180.564 52.8681 180.564 51.1806V3.81947C180.564 2.13193 179.234 0.763916 177.593 0.763916Z" fill="white" stroke="black" stroke-width="2"/>
<path d="M42.9416 26.2142C42.9072 21.9844 46.3109 19.9226 46.4693 19.8305C44.5401 16.9398 41.5499 16.543 40.4957 16.5147C37.9809 16.2455 35.5487 18.0593 34.2672 18.0593C32.965 18.0593 30.9944 16.543 28.8655 16.5856C26.1301 16.6281 23.5739 18.2577 22.1753 20.7799C19.2815 25.9308 21.4381 33.4975 24.2147 37.6636C25.5996 39.7041 27.2188 41.9784 29.3409 41.9004C31.4147 41.8154 32.1933 40.5401 34.6944 40.5401C37.1748 40.5401 37.9051 41.9004 40.0686 41.8508C42.294 41.8154 43.6996 39.8032 45.0362 37.7486C46.6416 35.4105 47.2824 33.1079 47.3099 32.9945C47.2548 32.9591 42.983 31.28 42.9416 26.2142ZM38.8559 13.7728C39.9721 12.3345 40.7368 10.3862 40.5233 8.40234C38.911 8.47316 36.8853 9.55009 35.7278 10.953C34.7013 12.1928 33.778 14.2191 34.0192 16.125C35.8243 16.2596 37.6915 15.1827 38.8559 13.7728Z" fill="black"/>
<path d="M72.9944 41.5959H70.0937L68.5021 36.4663H62.9832L61.4674 41.5959H58.6426L64.1132 24.1241H67.4893L72.9944 41.5959ZM68.0267 34.3124L66.5867 29.7497C66.4351 29.2821 66.1457 28.1839 65.7323 26.4551H65.6841C65.5188 27.1991 65.2432 28.2973 64.878 29.7497L63.4656 34.3124H68.0267ZM87.0365 35.1414C87.0365 37.2811 86.4712 38.9744 85.3413 40.2214C84.3281 41.3267 83.0674 41.8793 81.5654 41.8793C79.9393 41.8793 78.7752 41.2841 78.0658 40.0938V46.7042H75.3439V33.1363C75.3439 31.7902 75.3098 30.4086 75.2407 28.9987H77.6379L77.7902 30.9967H77.8377C78.7477 29.4946 80.1257 28.7365 81.9717 28.7365C83.4188 28.7365 84.6245 29.3246 85.5894 30.5007C86.5537 31.6769 87.0365 33.2285 87.0365 35.1414ZM84.2664 35.2476C84.2664 34.022 83.9975 33.0088 83.4604 32.2153C82.8743 31.3863 82.0824 30.9754 81.0899 30.9754C80.4221 30.9754 79.8085 31.2092 79.264 31.6626C78.7202 32.1232 78.3614 32.7254 78.1965 33.4622C78.1207 33.7386 78.0791 34.029 78.0725 34.3124V36.4167C78.0725 37.3307 78.3481 38.1029 78.8926 38.7406C79.4363 39.3712 80.1465 39.69 81.0209 39.69C82.0475 39.69 82.8468 39.2791 83.4188 38.4714C83.9767 37.6495 84.2664 36.5796 84.2664 35.2476ZM101.133 35.1414C101.133 37.2811 100.568 38.9744 99.4378 40.2214C98.4252 41.3267 97.1646 41.8793 95.6626 41.8793C94.0364 41.8793 92.8717 41.2841 92.1622 40.0938V46.7042H89.4404V33.1363C89.4404 31.7902 89.4062 30.4086 89.3371 28.9987H91.7351L91.8866 30.9967H91.9349C92.8442 29.4946 94.2222 28.7365 96.0689 28.7365C97.516 28.7365 98.7216 29.3246 99.6859 30.5007C100.644 31.6769 101.133 33.2285 101.133 35.1414ZM98.3562 35.2476C98.3562 34.022 98.088 33.0088 97.5502 32.2153C96.9648 31.3863 96.1722 30.9754 95.1805 30.9754C94.5119 30.9754 93.8983 31.2092 93.3471 31.6626C92.8033 32.1232 92.4445 32.7254 92.2796 33.4622C92.1964 33.8094 92.1489 34.0928 92.1489 34.3124V36.4167C92.1489 37.3307 92.4245 38.1029 92.9682 38.7406C93.5127 39.3712 94.2222 39.69 95.1047 39.69C96.1306 39.69 96.9299 39.2791 97.5019 38.4714C98.0739 37.6495 98.3562 36.5796 98.3562 35.2476ZM116.89 36.7001C116.89 38.188 116.388 39.3995 115.382 40.3277C114.279 41.3479 112.729 41.858 110.751 41.858C108.926 41.858 107.458 41.4967 106.349 40.7669L106.976 38.436C108.168 39.1657 109.483 39.527 110.91 39.527C111.936 39.527 112.736 39.2862 113.308 38.8114C113.88 38.3367 114.169 37.6991 114.169 36.9056C114.169 36.1971 113.928 35.6019 113.459 35.1131C112.99 34.6313 112.212 34.1778 111.117 33.7669C108.14 32.6262 106.652 30.9541 106.652 28.7649C106.652 27.3337 107.175 26.1576 108.229 25.2436C109.277 24.3296 110.669 23.8691 112.405 23.8691C113.949 23.8691 115.237 24.1454 116.263 24.698L115.582 26.9795C114.617 26.441 113.535 26.1788 112.315 26.1788C111.358 26.1788 110.6 26.4197 110.062 26.9015C109.607 27.3337 109.38 27.858 109.38 28.4815C109.38 29.1687 109.642 29.7426 110.166 30.1889C110.621 30.5999 111.44 31.0534 112.632 31.5351C114.093 32.1444 115.168 32.8458 115.857 33.6607C116.546 34.4754 116.89 35.4886 116.89 36.7001ZM125.916 31.1029H122.912V37.2173C122.912 38.7761 123.442 39.5483 124.504 39.5483C124.993 39.5483 125.392 39.5058 125.716 39.4208L125.792 41.5463C125.255 41.7518 124.552 41.858 123.677 41.858C122.602 41.858 121.761 41.518 121.155 40.8449C120.549 40.1718 120.246 39.0381 120.246 37.4512V31.1029H118.462V29.0058H120.246V26.6961L122.919 25.8671V29.0058H125.923L125.916 31.1029ZM139.427 35.1981C139.427 37.1323 138.89 38.7265 137.815 39.9663C136.692 41.2487 135.197 41.8864 133.33 41.8864C131.531 41.8864 130.098 41.27 129.03 40.0514C127.963 38.8256 127.432 37.274 127.432 35.4107C127.432 33.4552 127.984 31.861 129.086 30.6141C130.188 29.3671 131.67 28.7507 133.536 28.7507C135.335 28.7507 136.782 29.3671 137.87 30.5928C138.904 31.776 139.427 33.3135 139.427 35.1981ZM136.603 35.2619C136.603 34.107 136.361 33.1151 135.872 32.2932C135.301 31.2942 134.487 30.7912 133.426 30.7912C132.337 30.7912 131.497 31.2942 130.932 32.2932C130.443 33.1221 130.202 34.1282 130.202 35.3185C130.202 36.4734 130.443 37.4653 130.932 38.2943C131.518 39.2932 132.345 39.7963 133.406 39.7963C134.446 39.7963 135.259 39.2862 135.852 38.273C136.355 37.4157 136.603 36.4167 136.603 35.2619ZM148.281 31.4643C147.998 31.4147 147.709 31.3863 147.42 31.3863C146.462 31.3863 145.725 31.7548 145.201 32.4987C144.747 33.1576 144.52 33.9865 144.52 34.9856V41.5959H141.798V32.9663C141.798 31.6414 141.777 30.3235 141.722 28.9987H144.092L144.188 31.4076H144.264C144.554 30.5786 145.002 29.9126 145.629 29.4096C146.193 28.9703 146.889 28.7365 147.599 28.7365C147.854 28.7365 148.074 28.7578 148.281 28.7861V31.4643ZM160.456 34.7022C160.463 35.1273 160.428 35.5524 160.359 35.9704H152.188C152.216 37.2173 152.615 38.1667 153.373 38.8256C154.062 39.4137 154.951 39.7042 156.046 39.7042C157.259 39.7042 158.361 39.5058 159.354 39.109L159.781 41.0503C158.623 41.5675 157.252 41.8297 155.674 41.8297C153.773 41.8297 152.284 41.2558 151.196 40.108C150.114 38.9602 149.569 37.4157 149.569 35.4815C149.569 33.5827 150.072 32.0027 151.086 30.7416C152.14 29.3954 153.573 28.7224 155.371 28.7224C157.135 28.7224 158.471 29.3954 159.381 30.7416C160.091 31.8114 160.456 33.1292 160.456 34.7022ZM157.858 33.9794C157.879 33.1505 157.7 32.4349 157.328 31.8256C156.859 31.0463 156.129 30.6566 155.157 30.6566C154.269 30.6566 153.545 31.0392 152.987 31.7972C152.532 32.3995 152.264 33.1292 152.181 33.9724L157.858 33.9794Z" fill="black"/>
<path d="M62.1989 17.9535C61.4411 17.9535 60.7866 17.918 60.2422 17.8543V9.40182C61.007 9.28135 61.7787 9.21757 62.5504 9.22467C65.6715 9.22467 67.1115 10.8046 67.1115 13.3765C67.1046 16.3451 65.4097 17.9535 62.1989 17.9535ZM62.6606 10.3087C62.2403 10.3087 61.882 10.337 61.5858 10.4008V16.8199C61.7442 16.8482 62.0543 16.8552 62.4884 16.8552C64.5346 16.8552 65.6991 15.6579 65.6991 13.419C65.6922 11.414 64.638 10.3087 62.6606 10.3087ZM71.59 18.0172C69.8331 18.0172 68.6893 16.664 68.6893 14.8289C68.6893 12.9159 69.8537 11.5557 71.6865 11.5557C73.4227 11.5557 74.5874 12.8451 74.5874 14.7297C74.5874 16.664 73.3883 18.0172 71.59 18.0172ZM71.6382 12.5617C70.6736 12.5617 70.0536 13.4898 70.0536 14.7935C70.0536 16.0688 70.6874 16.9969 71.6245 16.9969C72.5684 16.9969 73.1954 16.005 73.1954 14.7652C73.2022 13.5041 72.5822 12.5617 71.6382 12.5617ZM84.6189 11.6832L82.738 17.8755H81.5115L80.733 15.1903C80.5399 14.5313 80.375 13.8654 80.2509 13.1923H80.2234C80.1268 13.8654 79.9404 14.5455 79.7406 15.1903L78.9138 17.8755H77.6739L75.903 11.6832H77.281L77.9629 14.6235C78.1219 15.3249 78.2593 15.9838 78.37 16.6144H78.3975C78.494 16.09 78.659 15.4453 78.8937 14.6377L79.748 11.6832H80.8363L81.6564 14.5739C81.8562 15.2753 82.0144 15.9626 82.1385 16.6144H82.1727C82.2626 15.9767 82.3933 15.3036 82.5798 14.5739L83.31 11.6832H84.6189ZM91.5572 17.8755H90.2208V14.3188C90.2208 13.2207 89.8137 12.6751 89.0077 12.6751C88.2158 12.6751 87.6713 13.3765 87.6713 14.1912V17.8755H86.3349V13.4544C86.3349 12.9089 86.3208 12.3209 86.2866 11.6832H87.4648L87.5264 12.6396H87.5606C87.9194 11.9808 88.6496 11.5557 89.4698 11.5557C90.7304 11.5557 91.5639 12.5476 91.5639 14.17L91.5572 17.8755ZM95.2432 17.8755H93.9068V8.84204H95.2432V17.8755ZM100.128 18.0172C98.3714 18.0172 97.2274 16.664 97.2274 14.8289C97.2274 12.9159 98.3922 11.5557 100.225 11.5557C101.961 11.5557 103.126 12.8451 103.126 14.7297C103.126 16.664 101.92 18.0172 100.128 18.0172ZM100.177 12.5617C99.2116 12.5617 98.592 13.4898 98.592 14.7935C98.592 16.0688 99.2257 16.9969 100.162 16.9969C101.107 16.9969 101.734 16.005 101.734 14.7652C101.734 13.5041 101.121 12.5617 100.177 12.5617ZM108.403 17.8755L108.306 17.1599H108.272C107.866 17.7338 107.266 18.0101 106.509 18.0101C105.426 18.0101 104.662 17.2308 104.662 16.1893C104.662 14.6589 105.95 13.8725 108.182 13.8725V13.7591C108.182 12.9443 107.763 12.5334 106.936 12.5334C106.343 12.5334 105.819 12.6893 105.365 12.9939L105.096 12.087C105.654 11.7327 106.35 11.5486 107.163 11.5486C108.734 11.5486 109.533 12.3988 109.533 14.1062V16.3877C109.533 17.0111 109.56 17.5 109.623 17.8684L108.403 17.8755ZM108.217 14.7935C106.729 14.7935 105.985 15.1619 105.985 16.0405C105.985 16.6923 106.371 17.0111 106.901 17.0111C107.584 17.0111 108.217 16.4797 108.217 15.75V14.7935ZM116.016 17.8755L115.955 16.8836H115.92C115.534 17.6346 114.887 18.0172 113.984 18.0172C112.53 18.0172 111.455 16.7065 111.455 14.8573C111.455 12.923 112.572 11.5557 114.094 11.5557C114.901 11.5557 115.472 11.832 115.789 12.3988H115.817V8.84204H117.153V16.2034C117.153 16.7986 117.167 17.3654 117.201 17.8684H116.016V17.8755ZM115.823 14.2338C115.823 13.3694 115.265 12.6255 114.411 12.6255C113.419 12.6255 112.813 13.5324 112.813 14.8006C112.813 16.0476 113.44 16.9049 114.384 16.9049C115.224 16.9049 115.823 16.1538 115.823 15.2612V14.2338ZM125.656 18.0172C123.899 18.0172 122.755 16.664 122.755 14.8289C122.755 12.9159 123.919 11.5557 125.752 11.5557C127.488 11.5557 128.652 12.8451 128.652 14.7297C128.652 16.664 127.454 18.0172 125.656 18.0172ZM125.704 12.5617C124.739 12.5617 124.119 13.4898 124.119 14.7935C124.119 16.0688 124.753 16.9969 125.69 16.9969C126.634 16.9969 127.261 16.005 127.261 14.7652C127.268 13.5041 126.648 12.5617 125.704 12.5617ZM135.853 17.8755H134.516V14.3188C134.516 13.2207 134.11 12.6751 133.304 12.6751C132.511 12.6751 131.967 13.3765 131.967 14.1912V17.8755H130.63V13.4544C130.63 12.9089 130.617 12.3209 130.582 11.6832H131.76L131.822 12.6396H131.856C132.215 11.9808 132.945 11.5557 133.765 11.5557C135.026 11.5557 135.86 12.5476 135.86 14.17V17.8755H135.853ZM144.851 12.7176H143.377V15.7216C143.377 16.4868 143.631 16.8694 144.155 16.8694C144.389 16.8694 144.589 16.8411 144.748 16.8057L144.782 17.8471C144.521 17.9464 144.176 18.0031 143.742 18.0031C142.687 18.0031 142.054 17.4079 142.054 15.835V12.7105H141.172V11.6761H142.054V10.5425L143.37 10.1316V11.6761H144.845L144.851 12.7176ZM151.941 17.8755H150.604V14.3472C150.604 13.2419 150.198 12.6822 149.392 12.6822C148.696 12.6822 148.055 13.164 148.055 14.1488V17.8826H146.718V8.84204H148.055V12.5617H148.083C148.503 11.8887 149.116 11.5557 149.894 11.5557C151.169 11.5557 151.948 12.5759 151.948 14.1912L151.941 17.8755ZM159.196 15.1123H155.179C155.207 16.2814 155.958 16.9474 157.074 16.9474C157.666 16.9474 158.217 16.8482 158.7 16.6569L158.907 17.6133C158.335 17.8684 157.666 17.996 156.888 17.996C155.007 17.996 153.891 16.7702 153.891 14.8785C153.891 12.9797 155.034 11.5557 156.736 11.5557C158.272 11.5557 159.237 12.7247 159.237 14.496C159.251 14.6943 159.237 14.9069 159.196 15.1123ZM157.969 14.1275C157.969 13.171 157.501 12.4979 156.647 12.4979C155.875 12.4979 155.269 13.1852 155.186 14.1275H157.969Z" fill="black"/>
</g>
<defs>
<clipPath id="clip0_3367_2868">
<rect width="182" height="55" fill="white"/>
</clipPath>
</defs>
</svg>
