<svg width="14" height="14" viewBox="0 0 14 14" fill="none" xmlns="http://www.w3.org/2000/svg">
<path d="M10.8845 9.15865L10.0213 8.29421L10.8845 7.431C11.4527 6.85771 11.7708 6.08265 11.769 5.27542C11.7672 4.46819 11.4458 3.69453 10.875 3.12374C10.3043 2.55294 9.53064 2.23149 8.72345 2.22972C7.91627 2.22795 7.14125 2.54601 6.56799 3.11431L5.7042 3.97813L4.84103 3.11492L5.7042 2.2517C6.50561 1.45025 7.59256 1 8.72592 1C9.85928 1 10.9462 1.45025 11.7476 2.2517C12.549 3.05315 12.9993 4.14015 12.9993 5.27357C12.9993 6.40699 12.549 7.49399 11.7476 8.29543L10.8845 9.15865ZM9.1575 10.8851L8.29433 11.7483C7.49292 12.5498 6.40598 13 5.27262 13C4.13925 13 3.05231 12.5498 2.2509 11.7483C1.44949 10.9469 0.999268 9.85985 0.999268 8.72643C0.999268 7.59301 1.44949 6.50601 2.2509 5.70456L3.11469 4.84135L3.97786 5.70579L3.11469 6.569C2.55422 7.14381 2.24276 7.91629 2.24779 8.71912C2.25282 9.52195 2.57393 10.2905 3.14156 10.8582C3.70919 11.426 4.47763 11.7472 5.28041 11.7523C6.0832 11.7575 6.85569 11.4461 7.43055 10.8857L8.29433 10.0225L9.1575 10.8851ZM8.72592 4.40974L9.5897 5.27357L5.27262 9.58965L4.40944 8.72643L8.72592 4.40974Z" fill="white"/>
</svg>
