<svg width="89" height="49" viewBox="0 0 89 49" fill="none" xmlns="http://www.w3.org/2000/svg">
<path d="M7.06253 24.3656C7.06253 31.0831 6.6501 37.1578 5.98545 41.547C5.65275 43.7441 5.25888 45.5048 4.82767 46.7092C4.61137 47.3134 4.39219 47.7587 4.17883 48.047C3.95941 48.3436 3.79326 48.4133 3.69075 48.4133C3.58823 48.4133 3.42209 48.3436 3.20266 48.047C2.98931 47.7587 2.77012 47.3134 2.55383 46.7092C2.12261 45.5048 1.72875 43.7441 1.39605 41.547C0.731398 37.1578 0.31896 31.0831 0.31896 24.3656C0.31896 17.648 0.731398 11.5733 1.39605 7.1841C1.72875 4.98704 2.12261 3.22637 2.55383 2.02191C2.77012 1.41776 2.98931 0.972412 3.20266 0.684099C3.42209 0.38758 3.58823 0.317857 3.69075 0.317857C3.79326 0.317857 3.95941 0.38758 4.17883 0.684099C4.39219 0.972412 4.61137 1.41776 4.82767 2.02191C5.25888 3.22637 5.65275 4.98704 5.98545 7.1841C6.6501 11.5733 7.06253 17.648 7.06253 24.3656Z" stroke="white" stroke-width="0.635714"/>
<path fill-rule="evenodd" clip-rule="evenodd" d="M6.63368 32.0616C6.82359 32.0454 7.01061 32.0227 7.19474 31.9933C7.24304 31.0248 7.28239 30.0294 7.31215 29.0115C7.13244 29.0805 6.9451 29.1349 6.75011 29.1746C6.72013 30.1601 6.68111 31.1238 6.63368 32.0616ZM6.74603 19.4243C6.94106 19.4638 7.12845 19.5179 7.30821 19.5867C7.27756 18.5689 7.23731 17.574 7.18811 16.6062C7.00395 16.5767 6.8169 16.5539 6.62695 16.5377C6.67528 17.4751 6.71517 18.4386 6.74603 19.4243ZM0.655288 18.7591C0.590904 20.5578 0.556786 22.4348 0.556786 24.3655C0.556786 26.245 0.589119 28.0737 0.65023 29.8287C0.441253 29.5888 0.247211 29.3306 0.0681079 29.0542C0.023323 27.5369 -0.000141144 25.9693 -0.000141144 24.3655C-0.000141144 22.7105 0.0248464 21.094 0.0724661 19.5316C0.251804 19.2557 0.446078 18.9982 0.655288 18.7591Z" fill="white"/>
<path fill-rule="evenodd" clip-rule="evenodd" d="M9.93816 24.2999C9.93816 25.954 9.62461 27.3613 8.99752 28.5217C8.37537 29.682 7.52608 30.5683 6.44966 31.1806C5.37817 31.788 4.17337 32.0916 2.83525 32.0916C1.91889 32.0916 1.06642 31.9502 0.277839 31.6672L0.219924 28.1923C0.397827 28.3805 0.593133 28.5446 0.805844 28.6846C1.38356 29.0648 2.06002 29.2549 2.83525 29.2549C3.61047 29.2549 4.28694 29.0648 4.86465 28.6846C5.44236 28.3044 5.88923 27.7464 6.20524 27.0107C6.52619 26.275 6.68667 25.3714 6.68667 24.2999C6.68667 23.2284 6.52619 22.3248 6.20524 21.5891C5.88923 20.8534 5.44236 20.2954 4.86465 19.9152C4.28694 19.535 3.61047 19.3449 2.83525 19.3449C2.06002 19.3449 1.38356 19.535 0.805844 19.9152C0.585476 20.0602 0.383787 20.2311 0.200779 20.4279L0.275699 16.9334C1.06487 16.6499 1.91806 16.5082 2.83525 16.5082C4.17337 16.5082 5.37817 16.8143 6.44966 17.4266C7.52608 18.0339 8.37537 18.9178 8.99752 20.0782C9.62461 21.2385 9.93816 22.6458 9.93816 24.2999ZM11.2117 36.1504V20.5077H14.3225V22.4186H14.4632C14.6015 22.1125 14.8014 21.8014 15.0631 21.4854C15.3298 21.1644 15.6754 20.8978 16.1001 20.6855C16.5296 20.4682 17.0629 20.3596 17.6999 20.3596C18.5294 20.3596 19.2948 20.5769 19.9959 21.0114C20.6971 21.441 21.2575 22.0903 21.6772 22.9593C22.0969 23.8234 22.3068 24.9072 22.3068 26.2108C22.3068 27.4798 22.1019 28.5513 21.692 29.4253C21.2871 30.2943 20.7341 30.9535 20.033 31.4028C19.3367 31.8472 18.5566 32.0694 17.6925 32.0694C17.0802 32.0694 16.5593 31.9682 16.1297 31.7657C15.705 31.5633 15.3569 31.309 15.0854 31.0029C14.8138 30.6918 14.6064 30.3782 14.4632 30.0622H14.3669V36.1504H11.2117ZM14.3003 26.196C14.3003 26.8725 14.3941 27.4625 14.5817 27.9662C14.7693 28.4698 15.0409 28.8624 15.3964 29.1438C15.752 29.4203 16.184 29.5586 16.6926 29.5586C17.2061 29.5586 17.6406 29.4178 17.9961 29.1364C18.3517 28.85 18.6208 28.455 18.8035 27.9513C18.9911 27.4428 19.0849 26.8576 19.0849 26.196C19.0849 25.5393 18.9936 24.9616 18.8109 24.4628C18.6282 23.9641 18.3591 23.5741 18.0036 23.2926C17.648 23.0112 17.2111 22.8704 16.6926 22.8704C16.1791 22.8704 15.7445 23.0062 15.389 23.2778C15.0385 23.5494 14.7693 23.9345 14.5817 24.4332C14.3941 24.9319 14.3003 25.5195 14.3003 26.196ZM25.5301 31.3954C26.3745 31.8694 27.3818 32.1064 28.552 32.1064C29.4902 32.1064 30.3172 31.9632 31.0332 31.6769C31.7541 31.3855 32.3417 30.9806 32.796 30.4622C33.2552 29.9388 33.5588 29.3265 33.707 28.6253L30.7888 28.4328C30.6802 28.7192 30.5222 28.9611 30.3148 29.1586C30.1074 29.3561 29.858 29.5043 29.5667 29.603C29.2754 29.7018 28.9544 29.7511 28.6038 29.7511C28.0755 29.7511 27.6188 29.64 27.2336 29.4178C26.8485 29.1957 26.5498 28.8796 26.3374 28.4698C26.1301 28.06 26.0264 27.5736 26.0264 27.0107V27.0033H33.7736V26.1367C33.7736 25.1689 33.6379 24.3246 33.3663 23.6037C33.0947 22.8778 32.7145 22.2754 32.2257 21.7965C31.7418 21.3175 31.1739 20.9595 30.5222 20.7225C29.8753 20.4806 29.1766 20.3596 28.4261 20.3596C27.3102 20.3596 26.3374 20.6065 25.5079 21.1003C24.6833 21.594 24.0439 22.2828 23.5896 23.1667C23.1353 24.0505 22.9082 25.0776 22.9082 26.2478C22.9082 27.4477 23.1353 28.4871 23.5896 29.366C24.0439 30.24 24.6907 30.9164 25.5301 31.3954ZM26.0293 25.048C26.0484 24.6394 26.1535 24.2667 26.3448 23.9296C26.5522 23.5592 26.8386 23.2654 27.204 23.0482C27.5743 22.826 27.999 22.7149 28.4779 22.7149C28.9371 22.7149 29.3396 22.8161 29.6852 23.0186C30.0358 23.2161 30.3098 23.4901 30.5073 23.8407C30.7049 24.1913 30.8036 24.5937 30.8036 25.048H26.0293ZM34.7898 31.8842V20.5077H37.8487V22.4927H37.9672C38.1746 21.7866 38.5227 21.2533 39.0116 20.8929C39.5004 20.5275 40.0633 20.3448 40.7003 20.3448C40.8583 20.3448 41.0286 20.3547 41.2113 20.3744C41.394 20.3942 41.5545 20.4213 41.6928 20.4559V23.2556C41.5446 23.2111 41.3397 23.1716 41.078 23.1371C40.8163 23.1025 40.5768 23.0852 40.3596 23.0852C39.8954 23.0852 39.4807 23.1864 39.1153 23.3889C38.7548 23.5864 38.4684 23.8629 38.2561 24.2184C38.0487 24.5739 37.945 24.9838 37.945 25.4479V31.8842H34.7898ZM43.2589 31.7213C43.8267 31.9731 44.4736 32.099 45.1994 32.099C45.7623 32.099 46.2585 32.025 46.6881 31.8768C47.1177 31.7238 47.4856 31.5139 47.7917 31.2473C48.0978 30.9757 48.3423 30.6622 48.525 30.3066H48.6138V31.8842H51.6061V24.211C51.6061 23.5346 51.4752 22.9544 51.2135 22.4705C50.9518 21.9816 50.5939 21.5817 50.1396 21.2706C49.6903 20.9595 49.1743 20.7299 48.5916 20.5818C48.0139 20.4337 47.409 20.3596 46.777 20.3596C45.8685 20.3596 45.0686 20.4979 44.3773 20.7744C43.6909 21.0459 43.1305 21.436 42.696 21.9446C42.2615 22.4483 41.9701 23.0457 41.822 23.737L44.7402 23.974C44.8488 23.5987 45.071 23.2877 45.4068 23.0408C45.7425 22.789 46.1944 22.663 46.7622 22.663C47.3004 22.663 47.7152 22.7914 48.0065 23.0482C48.3028 23.305 48.4509 23.6679 48.4509 24.137V24.1814C48.4509 24.4233 48.3595 24.606 48.1768 24.7295C47.9942 24.8529 47.7004 24.9467 47.2955 25.0109C46.8906 25.0702 46.3573 25.1344 45.6956 25.2035C45.1327 25.2578 44.5945 25.3516 44.081 25.485C43.5724 25.6183 43.1182 25.8158 42.7182 26.0775C42.3182 26.3392 42.0022 26.6848 41.7702 27.1144C41.5381 27.544 41.422 28.0748 41.422 28.7068C41.422 29.4573 41.585 30.0844 41.9109 30.5881C42.2417 31.0868 42.691 31.4645 43.2589 31.7213ZM47.3325 29.6475C46.977 29.8301 46.5672 29.9215 46.103 29.9215C45.6191 29.9215 45.2192 29.8104 44.9031 29.5882C44.5921 29.3611 44.4365 29.0327 44.4365 28.6031C44.4365 28.3069 44.5131 28.06 44.6661 27.8625C44.8192 27.66 45.034 27.4995 45.3105 27.381C45.587 27.2625 45.9104 27.1761 46.2808 27.1218C46.4536 27.0971 46.6462 27.07 46.8585 27.0403C47.0708 27.0058 47.2831 26.9687 47.4954 26.9292C47.7078 26.8848 47.8979 26.8379 48.0658 26.7885C48.2386 26.7342 48.3744 26.6749 48.4731 26.6108V27.818C48.4731 28.218 48.3719 28.576 48.1694 28.892C47.967 29.208 47.688 29.4598 47.3325 29.6475ZM59.0623 20.5077V22.8778H56.9218V28.3883C56.9218 28.6797 56.9662 28.9068 57.0551 29.0697C57.144 29.2277 57.2674 29.3388 57.4254 29.403C57.5884 29.4672 57.776 29.4993 57.9883 29.4993C58.1365 29.4993 58.2846 29.487 58.4327 29.4623C58.5809 29.4327 58.6944 29.4104 58.7734 29.3956L59.2697 31.7435C59.1117 31.7929 58.8895 31.8497 58.6031 31.9139C58.3167 31.983 57.9686 32.025 57.5588 32.0398C56.7984 32.0694 56.1318 31.9682 55.559 31.7361C54.9911 31.504 54.5492 31.1436 54.2332 30.6547C53.9172 30.1659 53.7617 29.5487 53.7666 28.8031V22.8778H52.2112V20.5077H53.7666V17.7821H56.9218V20.5077H59.0623ZM62.1079 31.3732C62.9473 31.862 63.9422 32.1064 65.0927 32.1064C66.2432 32.1064 67.2357 31.862 68.0702 31.3732C68.9096 30.8794 69.5564 30.1931 70.0107 29.3142C70.465 28.4303 70.6921 27.4057 70.6921 26.2404C70.6921 25.0652 70.465 24.0382 70.0107 23.1593C69.5564 22.2754 68.9096 21.5891 68.0702 21.1003C67.2357 20.6065 66.2432 20.3596 65.0927 20.3596C63.9422 20.3596 62.9473 20.6065 62.1079 21.1003C61.2734 21.5891 60.629 22.2754 60.1748 23.1593C59.7205 24.0382 59.4934 25.0652 59.4934 26.2404C59.4934 27.4057 59.7205 28.4303 60.1748 29.3142C60.629 30.1931 61.2734 30.8794 62.1079 31.3732ZM66.4185 29.2179C66.0679 29.5141 65.6309 29.6623 65.1075 29.6623C64.5792 29.6623 64.1348 29.5141 63.7744 29.2179C63.4188 28.9167 63.1497 28.5068 62.967 27.9884C62.7893 27.4699 62.7004 26.8799 62.7004 26.2182C62.7004 25.5566 62.7893 24.9665 62.967 24.448C63.1497 23.9296 63.4188 23.5197 63.7744 23.2185C64.1348 22.9173 64.5792 22.7667 65.1075 22.7667C65.6309 22.7667 66.0679 22.9173 66.4185 23.2185C66.7691 23.5197 67.0333 23.9296 67.211 24.448C67.3937 24.9665 67.4851 25.5566 67.4851 26.2182C67.4851 26.8799 67.3937 27.4699 67.211 27.9884C67.0333 28.5068 66.7691 28.9167 66.4185 29.2179ZM71.7009 31.8842V20.5077H74.7598V22.4927H74.8783C75.0857 21.7866 75.4338 21.2533 75.9226 20.8929C76.4115 20.5275 76.9744 20.3448 77.6113 20.3448C77.7693 20.3448 77.9397 20.3547 78.1224 20.3744C78.3051 20.3942 78.4656 20.4213 78.6038 20.4559V23.2556C78.4557 23.2111 78.2508 23.1716 77.9891 23.1371C77.7274 23.1025 77.4879 23.0852 77.2706 23.0852C76.8065 23.0852 76.3917 23.1864 76.0263 23.3889C75.6659 23.5864 75.3795 23.8629 75.1672 24.2184C74.9598 24.5739 74.8561 24.9838 74.8561 25.4479V31.8842H71.7009ZM85.7693 23.9296L88.6579 23.7518C88.5196 22.705 88.0357 21.8779 87.2062 21.2706C86.3816 20.6633 85.2509 20.3596 83.814 20.3596C82.8412 20.3596 81.992 20.5028 81.2661 20.7892C80.5452 21.0756 79.9848 21.4829 79.5848 22.0113C79.1898 22.5396 78.9923 23.1692 78.9923 23.8999C78.9923 24.7492 79.2614 25.4479 79.7996 25.996C80.3428 26.5441 81.1698 26.9292 82.2808 27.1514L84.251 27.544C84.7447 27.6427 85.1101 27.7859 85.3471 27.9736C85.5841 28.1563 85.7051 28.3908 85.7101 28.6772C85.7051 29.0179 85.5323 29.2969 85.1916 29.5141C84.8558 29.7265 84.4114 29.8326 83.8584 29.8326C83.2955 29.8326 82.8338 29.7141 82.4734 29.4771C82.1129 29.2352 81.8858 28.8846 81.792 28.4254L78.6886 28.5883C78.8417 29.6746 79.3626 30.5338 80.2514 31.1658C81.1451 31.7929 82.345 32.1064 83.851 32.1064C84.8385 32.1064 85.7101 31.9509 86.4655 31.6398C87.2259 31.3238 87.8234 30.8843 88.2579 30.3215C88.6974 29.7585 88.9171 29.1043 88.9171 28.3587C88.9171 27.539 88.6455 26.8774 88.1024 26.3737C87.5592 25.8701 86.7346 25.5047 85.6286 25.2776L83.5696 24.8628C83.0412 24.7492 82.6684 24.5986 82.4512 24.411C82.2339 24.2234 82.1253 23.9938 82.1253 23.7222C82.1253 23.3815 82.2932 23.1099 82.6289 22.9075C82.9647 22.7001 83.377 22.5964 83.8658 22.5964C84.2312 22.5964 84.5448 22.6581 84.8065 22.7816C85.0731 22.9001 85.2879 23.0605 85.4508 23.263C85.6138 23.4605 85.7199 23.6827 85.7693 23.9296Z" fill="white"/>
</svg>
