<svg width="28" height="28" viewBox="0 0 28 28" fill="none" xmlns="http://www.w3.org/2000/svg">
<rect x="0.5" y="0.5" width="27" height="27" fill="white"/>
<rect x="0.5" y="0.5" width="27" height="27" stroke="white"/>
<g clip-path="url(#clip0_2085_1139)">
<path d="M15.8351 11.8641L16.4681 8.92815C16.4955 8.81649 16.4975 8.70013 16.4742 8.58757C16.4508 8.47501 16.4025 8.36909 16.333 8.27756C16.2634 8.18603 16.1743 8.1112 16.0721 8.05853C15.9699 8.00586 15.8572 7.97669 15.7423 7.97315H12.2388C12.1239 7.97669 12.0112 8.00586 11.909 8.05853C11.8069 8.1112 11.7177 8.18603 11.6482 8.27756C11.5786 8.36909 11.5304 8.47501 11.507 8.58757C11.4836 8.70013 11.4857 8.81649 11.513 8.92815L12.0969 11.8696L10.1924 14.8656C10.1499 14.9352 10.1266 15.0148 10.1248 15.0963C10.123 15.1778 10.1428 15.2584 10.1821 15.3298C10.2214 15.4013 10.2789 15.4611 10.3487 15.5031C10.4186 15.5452 10.4983 15.5681 10.5798 15.5695L17.2976 15.575C17.3785 15.571 17.4571 15.5461 17.5256 15.5028C17.5941 15.4596 17.6503 15.3993 17.6887 15.328C17.7271 15.2567 17.7464 15.1766 17.7449 15.0956C17.7433 15.0146 17.7208 14.9354 17.6796 14.8656L15.8351 11.8641Z" fill="black" stroke="black" stroke-linecap="round" stroke-linejoin="round"/>
<path d="M13.9741 15.6132L13.9905 20.0936" stroke="black" stroke-linecap="round" stroke-linejoin="round"/>
</g>
<defs>
<clipPath id="clip0_2085_1139">
<rect width="14" height="14" fill="white" transform="translate(7 7)"/>
</clipPath>
</defs>
</svg>
