<svg width="14" height="14" viewBox="0 0 14 14" fill="none"
    xmlns="http://www.w3.org/2000/svg">
    <path d="M9.10489 7.50376L11.6286 5.87535C11.7269 5.81573 11.8106 5.7349 11.8736 5.63878C11.9367 5.54265 11.9775 5.43365 11.993 5.31974C12.0086 5.20583 11.9984 5.08989 11.9634 4.98039C11.9284 4.87089 11.8694 4.77059 11.7906 4.68683L9.31327 2.20948C9.22951 2.13073 9.12922 2.07169 9.01971 2.03667C8.91021 2.00166 8.79427 1.99154 8.68036 2.00708C8.56645 2.02261 8.45745 2.0634 8.36133 2.12645C8.2652 2.18951 8.18437 2.27325 8.12476 2.37155L6.45775 4.86434L2.99254 5.6361C2.9133 5.65533 2.84053 5.69514 2.78162 5.75151C2.7227 5.80788 2.67971 5.87881 2.657 5.95713C2.63428 6.03544 2.63266 6.11837 2.65227 6.19751C2.67189 6.27666 2.71207 6.34922 2.76873 6.40786L7.51506 11.1619C7.57514 11.2163 7.64824 11.2542 7.72728 11.2721C7.80632 11.2899 7.88862 11.2871 7.96623 11.2638C8.04384 11.2405 8.11413 11.1976 8.1703 11.1392C8.22646 11.0808 8.2666 11.0089 8.28683 10.9304L9.10489 7.50376Z" stroke="white" stroke-linecap="round" stroke-linejoin="round"/>
    <path d="M5.13795 8.83887L1.98145 12.0185" stroke="white" stroke-linecap="round" stroke-linejoin="round"/>
</svg>
    